HIERARCHY
ROOT root     
{
	OFFSET 0.0000 0.0000 0.0000
	CHANNELS 6 Xposition Yposition Zposition Zrotation Yrotation Xrotation
	JOINT pelvis   
	{
		OFFSET 0.0000 0.0000 0.0000
		CHANNELS 3 Zrotation Yrotation Xrotation
		JOINT thorax   
		{
			OFFSET 0.0000 23.0750 -5.0000
			CHANNELS 3 Zrotation Yrotation Xrotation
			JOINT rclavicle
			{
				OFFSET 0.0000 28.0009 0.0000
				CHANNELS 3 Zrotation Yrotation Xrotation
				JOINT rhumerus 
				{
					OFFSET -18.5725 5.5939 0.0000
					CHANNELS 3 Zrotation Yrotation Xrotation
					JOINT rradius  
					{
						OFFSET -24.8459 0.0000 0.0000
						CHANNELS 3 Zrotation Yrotation Xrotation
						JOINT rhand    
						{
							OFFSET -24.5477 0.0000 0.0000
							CHANNELS 3 Zrotation Yrotation Xrotation
							End Site
							{
								OFFSET -8.1826 0.0000 0.0000
							}
						}
					}
				}
			}
			JOINT lclavicle
			{
				OFFSET 0.0000 28.0009 0.0000
				CHANNELS 3 Zrotation Yrotation Xrotation
				JOINT lhumerus 
				{
					OFFSET 18.5725 5.5939 0.0000
					CHANNELS 3 Zrotation Yrotation Xrotation
					JOINT lradius  
					{
						OFFSET 24.8459 0.0000 0.0000
						CHANNELS 3 Zrotation Yrotation Xrotation
						JOINT lhand    
						{
							OFFSET 24.5477 0.0000 0.0000
							CHANNELS 3 Zrotation Yrotation Xrotation
							End Site
							{
								OFFSET 8.1826 0.0000 0.0000
							}
						}
					}
				}
			}
			JOINT head     
			{
				OFFSET 0.0000 35.2030 0.0000
				CHANNELS 3 Zrotation Yrotation Xrotation
				End Site
				{
					OFFSET 0.0000 11.7343 0.0000
				}
			}
		}
		JOINT rfemur   
		{
			OFFSET -8.2817 0.0000 0.0000
			CHANNELS 3 Zrotation Yrotation Xrotation
			JOINT rtibia   
			{
				OFFSET 0.0000 -43.3627 0.0000
				CHANNELS 3 Zrotation Yrotation Xrotation
				JOINT rfoot    
				{
					OFFSET 0.0000 -38.2947 0.0000
					CHANNELS 3 Zrotation Yrotation Xrotation
					JOINT rtoes    
					{
						OFFSET 0.0000 0.0000 16.6054
						CHANNELS 3 Zrotation Yrotation Xrotation
						End Site
						{
							OFFSET 0.0000 0.0000 5.5351
						}
					}
				}
			}
		}
		JOINT lfemur   
		{
			OFFSET 8.2817 0.0000 0.0000
			CHANNELS 3 Zrotation Yrotation Xrotation
			JOINT ltibia   
			{
				OFFSET 0.0000 -43.3627 0.0000
				CHANNELS 3 Zrotation Yrotation Xrotation
				JOINT lfoot    
				{
					OFFSET 0.0000 -38.2947 0.0000
					CHANNELS 3 Zrotation Yrotation Xrotation
					JOINT ltoes    
					{
						OFFSET 0.0000 0.0000 16.6054
						CHANNELS 3 Zrotation Yrotation Xrotation
						End Site
						{
							OFFSET 0.0000 0.0000 5.5351
						}
					}
				}
			}
		}
	}
}
MOTION
Frames: 7
Frame Time: .0333333
129.85 82.462 6.0807 163.584 74.4939 177.796 0 -0 0 6.53817 -23.0811 -14.9968 27.783 -12.4343 -3.95572e-05 55.5367 4.90717 -39.3682 -0 87.2375 -0 -31.9321 3.65262 -1.04539 -24.1529 11.9606 0.000167155 -41.146 -12.2492 11.3066 180 -66.3807 180 10.7934 -5.92365 -0.560104 -19.5923 4.62791 -9.35898 1.8441 3.10123 -33.8329 -0 -0 53.7413 -6.74049e-06 -10.3748 -4.25952 0.77909 -1.9625e-06 -30.4244 6.36429 -3.00544 -2.45572 -0 -0 48.1223 -1.16599e-05 4.76804 23.139 1.87733 1.51032e-06 -38.0322 
130.73 82.694 6.2414 163.753 74.3493 177.664 0 -0 0 6.26534 -23.0697 -14.2729 27.8868 -12.449 -0.000132954 55.7887 4.58021 -38.4654 -3.33516e-06 85.6802 -3.59675e-06 -31.8582 3.1371 -0.895508 -24.3966 11.927 -6.26295e-05 -40.8973 -11.8343 11.7956 180 -67.495 180 10.4791 -5.75756 -0.528393 -19.19 4.78232 -9.64369 2.20104 2.92812 -32.8579 -0 -0 53.4795 -6.47599e-06 -10.3701 -3.86168 0.706111 1.1945e-06 -30.7325 6.31666 -2.76628 -3.38359 -0 -0 49.2133 -1.94653e-05 6.41781 21.0061 2.30894 1.61437e-05 -37.2626 
131.59 82.948 6.4085 164.073 74.2812 177.696 0 -0 0 6.07005 -22.9601 -13.5449 27.8851 -12.4027 -0.000112915 55.8283 4.25851 -37.4982 -2.16986e-06 84.0694 -1.95613e-06 -31.4712 2.75887 -0.777472 -24.6133 11.8896 -0.000167341 -40.4354 -11.4884 12.0454 180 -68.6973 -180 10.3379 -5.61387 -0.508199 -18.7839 4.92097 -9.95063 2.60127 2.7284 -31.854 -0 -0 53.0757 1.26509e-06 -10.2433 -3.43272 0.619905 2.1675e-06 -31.1816 6.29448 -2.46842 -4.32546 -0 -0 50.1378 7.10226e-05 7.96814 18.9653 2.60462 3.58591e-06 -36.4429 
132.44 83.218 6.5821 164.532 74.271 177.878 0 -0 0 5.94312 -22.7634 -12.8169 27.7965 -12.3148 5.3307e-05 55.682 3.96624 -36.4937 -0 82.4693 -0 -30.7787 2.51208 -0.691508 -24.7893 11.8476 -6.73281e-05 -39.7996 -11.2105 12.0779 180 -69.983 -180 10.3636 -5.48587 -0.497902 -18.3813 5.04349 -10.2634 3.03894 2.48146 -30.8059 -0 -0 52.5114 -2.57523e-06 -9.98992 -2.98421 0.525401 -2.64328e-06 -31.7263 6.29344 -2.12906 -5.27422 -0 -0 50.8875 6.8252e-06 9.40213 17.0581 2.78084 -2.73049e-06 -35.4089 
133.28 83.502 6.7603 165.087 74.3049 178.166 0 -0 0 5.86229 -22.4898 -12.1009 27.641 -12.1872 0.000122351 55.3736 3.68786 -35.4926 -2.06479e-06 80.9533 -1.762e-06 -29.8075 2.37418 -0.631982 -24.9108 11.7938 4.49398e-05 -39.0325 -10.984 11.9166 -180 -71.3492 180 10.5372 -5.36184 -0.494807 -17.9779 5.14974 -10.5605 3.49657 2.16736 -29.7054 -0 -0 51.775 4.8277e-06 -9.61283 -2.53035 0.4284 2.86147e-06 -32.2759 6.29616 -1.77602 -6.22652 -0 -0 51.4547 -5.17219e-05 10.7114 15.3312 2.8632 -1.81683e-05 -34.2125 
134.12 83.796 6.9416 165.692 74.3697 178.518 0 -0 0 5.80435 -22.1529 -11.4068 27.4403 -12.0336 -0.000134451 54.9317 3.42403 -34.5216 -3.12943e-06 79.5703 -3.28632e-06 -28.611 2.32046 -0.591783 -24.9662 11.729 -6.4834e-05 -38.1673 -10.8007 11.5853 180 -72.7939 -180 10.8295 -5.22695 -0.495799 -17.5656 5.23992 -10.8234 3.95671 1.7778 -28.5489 -0 -0 50.8595 6.12268e-06 -9.12521 -2.08102 0.334198 2.71066e-07 -32.7446 6.28709 -1.43084 -7.17924 -0 -0 51.8384 -5.088e-05 11.8803 13.7963 2.87198 4.4096e-06 -32.8581 
134.94 84.096 7.1237 166.28 74.4496 178.873 0 -0 0 5.74044 -21.7607 -10.7495 27.2137 -11.8632 0.000134245 54.3876 3.17188 -33.6048 -1.33794e-06 78.3672 -1.64137e-06 -27.255 2.32115 -0.562825 -24.948 11.6511 -6.56938e-05 -37.2351 -10.6486 11.1083 180 -74.3044 180 11.2053 -5.06811 -0.497501 -17.1357 5.31561 -11.0359 4.39569 1.3119 -27.3404 -0 -0 49.7733 9.42312e-07 -8.54577 -1.64511 0.247199 -2.08557e-07 -33.051 6.24417 -1.11439 -8.13529 -0 -0 52.0398 -0.000140368 12.8949 12.4446 2.82459 -4.06216e-06 -31.3536 
